<svg xmlns="http://www.w3.org/2000/svg" viewBox="0 0 800 336" font-family="'PingFang SC','Hiragino Sans GB','Microsoft YaHei','Noto Sans CJK SC','Source Han Sans SC',sans-serif">
  <defs>
    <marker id="arrow" viewBox="0 0 10 10" refX="8" refY="5" markerWidth="7" markerHeight="7" orient="auto-start-reverse">
      <path d="M 0 1 L 8 5 L 0 9" fill="none" stroke="#52514e" stroke-width="1.6" stroke-linecap="round" stroke-linejoin="round"/>
    </marker>
  </defs>
  <rect x="0.5" y="0.5" width="799" height="335" rx="14" fill="#faf6ee" stroke="#e3d9c4"/>

  <rect x="250" y="20" width="300" height="36" rx="18" fill="#0b0b0b"/>
  <text x="400" y="43" font-size="14" fill="#ffffff" text-anchor="middle">Team Lead (you) · orchestrate &amp; synthesize</text>
  <line x1="400" y1="56" x2="400" y2="76" stroke="#52514e" stroke-width="1.5" marker-end="url(#arrow)"/>
  <text x="412" y="72" font-size="11.5" fill="#8a897f">×4 in parallel</text>

  <g>
    <rect x="84" y="80" width="309" height="96" rx="10" fill="#ffffff" stroke="#e6ddc9"/>
    <rect x="84" y="80" width="309" height="4.5" rx="2" fill="#2a78d6"/>
    <text x="238" y="112" font-size="15" font-weight="700" fill="#0b0b0b" text-anchor="middle">Duan Yongping · Business Model</text>
    <text x="238" y="136" font-size="12.5" fill="#52514e" text-anchor="middle">Is this a good business?</text>
    <text x="238" y="158" font-size="11" fill="#8a897f" text-anchor="middle">Do the right thing, do it right</text>

    <rect x="407" y="80" width="309" height="96" rx="10" fill="#ffffff" stroke="#e6ddc9"/>
    <rect x="407" y="80" width="309" height="4.5" rx="2" fill="#1baf7a"/>
    <text x="561" y="112" font-size="15" font-weight="700" fill="#0b0b0b" text-anchor="middle">Buffett · Valuation</text>
    <text x="561" y="136" font-size="12.5" fill="#52514e" text-anchor="middle">Is price well below value?</text>
    <text x="561" y="158" font-size="11" fill="#8a897f" text-anchor="middle">Competence · margin of safety</text>

    <rect x="84" y="192" width="309" height="96" rx="10" fill="#ffffff" stroke="#e6ddc9"/>
    <rect x="84" y="192" width="309" height="4.5" rx="2" fill="#eda100"/>
    <text x="238" y="224" font-size="15" font-weight="700" fill="#0b0b0b" text-anchor="middle">Munger · Competition</text>
    <text x="238" y="248" font-size="12.5" fill="#52514e" text-anchor="middle">Invert: how does it die?</text>
    <text x="238" y="270" font-size="11" fill="#8a897f" text-anchor="middle">Mental models · inversion</text>

    <rect x="407" y="192" width="309" height="96" rx="10" fill="#ffffff" stroke="#e6ddc9"/>
    <rect x="407" y="192" width="309" height="4.5" rx="2" fill="#008300"/>
    <text x="561" y="224" font-size="15" font-weight="700" fill="#0b0b0b" text-anchor="middle">Li Lu · Risk &amp; Management</text>
    <text x="561" y="248" font-size="12.5" fill="#52514e" text-anchor="middle">How certain in ten years?</text>
    <text x="561" y="270" font-size="11" fill="#8a897f" text-anchor="middle">Intellectual honesty · patience</text>
  </g>

  <rect x="345" y="172" width="110" height="24" rx="12" fill="#ffffff" stroke="#d8d7d2"/>
  <text x="400" y="188" font-size="11.5" fill="#52514e" text-anchor="middle">⇄ cross-examine</text>

  <text x="400" y="318" font-size="12" fill="#8a897f" text-anchor="middle">Parallel research · live progress · synthesized into the final report</text>
</svg>
